# xmcd CD database file
#
# Track frame offsets:
#	150
#	14842
#	29384
#	40628
#	52450
#	67639
#	79080
#	90219
#	104336
#	117000
#	131161
#	143432
#	156023
#	171053
#	183855
#	197569
#	209006
#	220095
#	232963
#	244300
#	257806
#	271625
#	285797
#	298991
#
# Disc length: 4162 seconds
#
# Revision: 2
# Processed by: cddbd v1.5.2PL0 Copyright (c) Steve Scherf et al.
# Submitted via: CDex 1.73
#
DISCID=4f104018
DTITLE=Various Artist - Jazz in the Charts 32/100 (1937) (3)
DYEAR=1937
DGENRE=Jazz
TTITLE0=Where Are You - Mildred Bailey and Her Orchestra
TTITLE1=Dedicated to You - Ella Fitzgerald and Her Savoy Eight
TTITLE2=Slumming on Park Avenue - Fletcher Henderson and His Orchestra - Vocals Jerry Blake
TTITLE3=Where Is the Sun - Fats Waller and His Rhythm
TTITLE4=Dedicated to You - Andy Kirk and His Twelve Clouds of Joy - Vocals Pha Terrell
TTITLE5=The Love Bug Will Bite You (If You Don't Watch Out) - Teddy Hill and His Orchestra
TTITLE6=Spring Cleaning - Fats Waller and His Rhythm
TTITLE7=Bunny Berigan - A Jam Session at Victor: Honeysuckle Rose
TTITLE8=Big Boy Blue - Ella Fitzgerald and Her Savoy Eight 
TTITLE9=Carelessly - Teddy Wilson and His Orchestra - Vocals Billie Holiday
TTITLE10=Twilight in Turkey - Raymond Scott Quintette
TTITLE11=When Love Is Young - Fats Waller and His Rhythm
TTITLE12=The Love Bug Will Bite You (If You Don't Watch Out) - Jimmy Dorsey and His Orchestra - Vocals Ray McKinley
TTITLE13=They Can't Take That Away From Me - Tommy Dorsey and His Orchestra - Vocals Jack Leonard
TTITLE14=The New East St. Louis Toodle-Oo - Duke Ellington and His Orchestra
TTITLE15=How Could You? - Teddy Wilson and His Orchestra - Vocals Billie Holiday
TTITLE16=To a Sweet (And) Pretty Thing - Fats Waller and His Rhythm
TTITLE17=Never in a Million Years - Mildred Bailey and Her Orchestra
TTITLE18=That Foolish Feeling - Tommy Dorsey and His Orchestra - Vocals Edythe Wright
TTITLE19=The Toy Trumpet - Raymond Scott Quintette
TTITLE20=They Can't Take That Away From Me - Billie Holiday and Her Orchestra
TTITLE21=Body and Soul - Art Tatum and His Swingsters
TTITLE22=You Showed Me the Way - Fats Waller and His Rhythm
TTITLE23=You Showed Me the Way - Fats Waller and His Rhythm
EXTD=YEAR: 1937
EXTT0=
EXTT1=
EXTT2=
EXTT3=
EXTT4=
EXTT5=
EXTT6=
EXTT7=
EXTT8=
EXTT9=
EXTT10=
EXTT11=
EXTT12=
EXTT13=
EXTT14=
EXTT15=
EXTT16=
EXTT17=
EXTT18=
EXTT19=
EXTT20=
EXTT21=
EXTT22=
EXTT23=
PLAYORDER=
